<svg xmlns="http://www.w3.org/2000/svg" x="20px" y="20px" viewBox="0 0 512 512" style="enable-background:new 0 0 512 512;" xml:space="preserve">
<path d="M32,464V48c0-8.837,7.163-16,16-16h240v64c0,17.673,14.327,32,32,32h64v48h32v-64c0.025-4.253-1.645-8.341-4.64-11.36 l-96-96C312.341,1.645,308.253-0.024,304,0H48C21.49,0,0,21.491,0,48v416c0,26.51,21.49,48,48,48h112v-32H48 C39.164,480,32,472.837,32,464z"/>
<path d="M224,256h-80c-8.837,0-16,7.163-16,16v144h32v-64h9.44l59.36,59.36l22.56-22.56l-36.8-36.8H224c17.673,0,32-14.327,32-32 v-32C256,270.327,241.673,256,224,256z M224,320h-64v-32h64V320z"/>
<polygon points="272,288 320,288 320,416 352,416 352,288 400,288 400,256 272,256"/>
<path d="M512,288v-32h-80c-8.837,0-16,7.163-16,16v144h32v-64h64v-32h-64v-32H512z"/>
</svg>
